# xmcd
#
# Track frame offsets:
#  150
#  8324
#  25621
#  37955
#  49833
#  65199
#  79081
#  91173
#  103560
#  115344
#  125221
#  138651
#  152183
#  164925
#  175665
#  188003
#
# Disc length: 2621 seconds
#
# Revision: 0
# Processed by: cddbd v1.5.1PL0 Copyright (c) Steve Scherf et al.
# Submitted via: Collectorz.com Music Collector 6.9
#
DISCID=d20a3b10
DTITLE=Various Artist - Country Ladies
DYEAR=2004
DGENRE=Country
TTITLE0=Kitty Wells - After Dark
TTITLE1=Deborah Allen - Baby, I Lied
TTITLE2=Billie Jo Spears - The Charming Kind
TTITLE3=Jeannie C Riley - Country Girl
TTITLE4=Holly Dunn - Daddy's Hands
TTITLE5=Rita Remington - Angel of The Morning
TTITLE6=Dolly Parton - Two Little Orphans
TTITLE7=Patti Page - Why Don't You Believe Me
TTITLE8=Marrie Osmond - I'll Take You Back
TTITLE9=Anne Murray - For Baby
TTITLE10=The Kendals - Thank God For The Radio
TTITLE11=Brenda Lee - You Don't Have To Say You Love Me
TTITLE12=Rita Coolidge - Words
TTITLE13=Patsy Cline - I Cried All The Way To The Alter
TTITLE14=Lynn Anderson - Stand By Your Man
TTITLE15=Sandy Posey - Born A Woman
EXTD=
EXTT0=
EXTT1=
EXTT2=
EXTT3=
EXTT4=
EXTT5=
EXTT6=
EXTT7=
EXTT8=
EXTT9=
EXTT10=
EXTT11=
EXTT12=
EXTT13=
EXTT14=
EXTT15=
PLAYORDER=
